<?xml version="1.0" encoding="UTF-8"?>
<svg version="1.1" xmlns="http://www.w3.org/2000/svg" width="1000" height="1000">
<path d="M0 0 C3.4656825 1.96780277 6.16511676 4.21343863 9 7 C9.86625 7.80308594 10.7325 8.60617188 11.625 9.43359375 C23.80436749 21.08857181 32.83129477 34.96185568 42 49 C43.17824856 50.79566272 44.35663835 52.59123279 45.53515625 54.38671875 C50.7422852 62.33564231 55.92804064 70.29668532 61.01953125 78.3203125 C69.3577015 91.45955264 77.93535304 104.35092365 87 117 C87.56348145 117.79019531 88.12696289 118.58039063 88.70751953 119.39453125 C98.37781405 132.95013768 108.33787225 146.20188673 119 159 C119.63591064 159.76546143 119.63591064 159.76546143 120.28466797 160.54638672 C126.17724602 167.62738387 132.2319792 174.51928473 138.49609375 181.2734375 C140.65378225 183.62299534 142.7439872 186.00983883 144.8125 188.4375 C149.54486329 193.85555013 154.09003277 197.54807615 161 200 C164.42072109 200.11607792 164.42072109 200.11607792 168.0625 199.5 C168.77164551 199.40323975 169.48079102 199.30647949 170.21142578 199.20678711 C178.9246332 197.96885983 187.59049391 196.38059018 196.2644043 194.89746094 C209.12587513 192.73640728 222.01693717 191.20883025 235 190 C236.12970215 189.89196045 236.12970215 189.89196045 237.28222656 189.78173828 C241.8512784 189.36263061 246.41495447 189.12752714 251 189 C251.90459961 188.97276855 252.80919922 188.94553711 253.74121094 188.91748047 C286.58459052 188.07656302 318.77937394 192.56771455 351.078125 198.0234375 C352.39985718 198.24290039 352.39985718 198.24290039 353.74829102 198.46679688 C355.29994107 198.72646647 356.8501506 198.99501623 358.39819336 199.27539062 C365.16187188 200.41997541 370.14535737 199.59778414 376 196 C378.7911654 193.57541792 381.3635246 190.96440086 383.9375 188.3125 C384.61490234 187.62994141 385.29230469 186.94738281 385.99023438 186.24414062 C390.5139139 181.6510662 394.80622901 176.89454443 399 172 C399.46204834 171.46511963 399.92409668 170.93023926 400.40014648 170.37915039 C419.770501 147.9019899 437.84020423 123.87953824 454 99 C454.92573908 97.57809755 455.8515241 96.156225 456.77734375 94.734375 C458.96031205 91.37888629 461.14078549 88.02178729 463.3203125 84.6640625 C469.46559738 75.20079111 475.63151648 65.75114632 481.82275391 56.31787109 C483.27445697 54.10564362 484.72465252 51.89242617 486.17333984 49.67822266 C488.27568613 46.46862475 490.38665249 43.264862 492.5 40.0625 C493.12173096 39.11084961 493.74346191 38.15919922 494.3840332 37.17871094 C498.85692273 30.42920099 503.77202854 24.17946226 509 18 C509.77585449 17.07102905 509.77585449 17.07102905 510.56738281 16.12329102 C521.42269738 3.26695093 533.69002616 -3.92326649 550.3046875 -6.515625 C558.0832971 -6.96011698 563.82746845 -4.66861131 570 0 C576.63829482 6.20645416 580.89727827 12.44994995 583.8125 21.0625 C585.25266347 25.16092439 586.93746047 29.00885396 588.8515625 32.90625 C592.24571007 40.20946593 594.45537226 47.69566074 596.5625 55.4375 C596.98562606 56.95888633 597.40989909 58.47995405 597.83520508 60.00073242 C598.75017276 63.27682171 599.65955089 66.55439424 600.56542969 69.83300781 C602.02398053 75.10076181 603.51292428 80.35964658 605.0078125 85.6171875 C609.56698387 101.66294927 614.10501 117.71385549 618.53125 133.796875 C619.74933945 138.21893228 620.96809153 142.64080626 622.1875 147.0625 C622.49347107 148.17244324 622.79944214 149.28238647 623.11468506 150.42596436 C627.92429221 167.84239616 632.97649664 185.17869995 638.13739014 202.49325562 C645.30136781 226.53254695 652.25471315 250.5766567 658 275 C658.19253357 275.81716492 658.38506714 276.63432983 658.58343506 277.47625732 C665.91229954 308.70232397 671.65221069 340.08988425 675.70825195 371.90722656 C676.27261901 376.2551792 676.81826041 380.38073918 678.0546875 384.59375 C679.39551983 389.4251789 679.56147482 394.19873391 679.875 399.1875 C680.41383587 407.4474229 681.16088674 415.62281829 682.20812798 423.8337841 C685.13231668 446.90792935 685.95885196 469.81795591 686 493.0625 C686.00368214 494.02286793 686.00736427 494.98323586 686.01115799 495.97270584 C686.12892765 530.22137719 682.88763521 561.72945437 673.85861206 594.84494019 C672.94005272 598.22028255 672.04676963 601.60171229 671.15649414 604.98461914 C664.63138011 629.6295821 656.98042233 652.49980505 643 674 C642.2698681 675.14000738 641.54072387 676.28064785 640.8125 677.421875 C639.3099392 679.77339577 637.79882127 682.11907859 636.28125 684.4609375 C634.76191737 686.80864346 633.26347493 689.16776449 631.78125 691.5390625 C624.55675424 703.05111174 616.56930479 713.55129921 607.30078125 723.51171875 C605.30347565 725.67179288 603.39456662 727.87547945 601.5 730.125 C553.38749295 785.14254278 471.74375006 804.88967766 402.22805786 809.76260757 C393.63931497 810.28429997 385.02898856 810.3854564 376.42773438 810.55419922 C375.40533 810.57516151 374.38292562 810.59612381 373.3295393 810.61772132 C351.91622622 811.05184079 330.50783722 811.1489465 309.090765 811.1343255 C304.01660496 811.13170932 298.94244628 811.13416358 293.86828613 811.13571167 C285.38142563 811.13750474 276.89457398 811.13520124 268.40771484 811.13037109 C258.69447519 811.1249057 248.98125647 811.12671927 239.26801729 811.1321975 C230.79616512 811.13677789 222.32431912 811.13735622 213.85246611 811.13475883 C208.84933855 811.13322642 203.84622074 811.13291669 198.84309387 811.13629532 C139.99463914 811.17062698 139.99463914 811.17062698 113.9375 808.75 C113.24895935 808.68719849 112.5604187 808.62439697 111.85101318 808.55969238 C59.24588102 803.69631984 3.3810775 789.53835999 -40 758 C-41.43279297 756.97519531 -41.43279297 756.97519531 -42.89453125 755.9296875 C-61.52060503 742.30799789 -78.30677254 726.60521629 -92 708 C-92.41556152 707.44521973 -92.83112305 706.89043945 -93.25927734 706.31884766 C-99.46297957 698.02547732 -104.95293997 689.38126821 -110.2734375 680.5 C-111.99684181 677.62888437 -113.76311417 674.79879018 -115.6015625 672 C-137.05518782 639.22981414 -144.31667888 600.4715032 -151.69165039 562.6237793 C-151.83038071 561.91333969 -151.96911102 561.20290009 -152.11204529 560.47093201 C-152.38081183 559.09366577 -152.64854533 557.71619748 -152.91517639 556.33851624 C-153.53862943 553.15905334 -154.23100918 550.039986 -155.13671875 546.9296875 C-158.18889798 535.10690443 -157.13197396 521.69523274 -157.01953125 509.57421875 C-157.01257421 508.71470926 -157.00561718 507.85519978 -156.99844933 506.96964455 C-156.96130656 502.40456857 -156.91752099 497.83961526 -156.86791992 493.2746582 C-156.82879859 489.58389048 -156.80091256 485.89332767 -156.78393555 482.20239258 C-156.67574858 459.41648494 -155.54335113 437.23202497 -152.45324707 414.65255737 C-151.37349274 405.95120024 -150.87089404 397.1864519 -150.34716797 388.43652344 C-150 386 -150 386 -149.0480957 383.25317383 C-147.74841133 379.21909644 -147.24691524 375.28604175 -146.73828125 371.08984375 C-146.50866537 369.29664463 -146.27849823 367.50351604 -146.04785156 365.71044922 C-145.86905457 364.30034576 -145.86905457 364.30034576 -145.68664551 362.86175537 C-138.27325747 304.92002061 -123.63692949 248.75540173 -106.76916504 192.91687012 C-100.68191134 172.72270152 -95.08351359 152.40008916 -89.5 132.0625 C-83.44223209 110.0028901 -77.35777849 87.95755593 -70.9375 66 C-70.65567871 65.03361603 -70.37385742 64.06723206 -70.08349609 63.07156372 C-62.14793812 35.90270989 -62.14793812 35.90270989 -57.4375 26.25 C-55.57678449 22.41130108 -53.78905198 18.63782584 -52.5 14.5625 C-50.50250799 9.81845647 -47.53775271 6.67199779 -44 3 C-43.21625 2.0925 -42.4325 1.185 -41.625 0.25 C-29.1009709 -10.48488208 -13.70061377 -6.1234475 0 0 Z " fill="#98D957" transform="translate(226,113)"/>
<path d="M0 0 C1.010625 0.185625 2.02125 0.37125 3.0625 0.5625 C2.51789416 5.61177419 0.77911193 9.56670816 -1.5625 14 C-2.28908482 15.41989598 -3.01431469 16.84048601 -3.73828125 18.26171875 C-4.10518066 18.97763184 -4.47208008 19.69354492 -4.85009766 20.43115234 C-6.52152782 23.7072155 -8.1546947 26.99873844 -9.75 30.3125 C-10.56404297 31.97539062 -10.56404297 31.97539062 -11.39453125 33.671875 C-15.31274362 42.83840355 -16.44471671 52.04968837 -16.3125 61.9375 C-16.30379883 63.02732178 -16.29509766 64.11714355 -16.28613281 65.23999023 C-16.04874826 78.30878832 -14.70100877 91.25084616 -4.9375 100.75 C2.56042591 107.01471441 11.34310314 110.32611982 21.0625 110.5625 C21.70493652 110.59746582 22.34737305 110.63243164 23.00927734 110.66845703 C38.80431582 111.51015473 49.0572332 108.29194577 61.0625 97.5625 C61.69929688 96.95277344 62.33609375 96.34304688 62.9921875 95.71484375 C66.194573 92.70460138 67.39951851 91.63735275 71.9375 91.125 C75.0625 91.5625 75.0625 91.5625 76.0625 92.5625 C76.60975387 97.66290605 75.53979651 99.92631674 72.375 103.875 C69.29430095 107.87990877 66.69702998 111.79380467 64.34375 116.25390625 C62.85813541 118.9307301 61.18975107 121.44747349 59.5 124 C52.49858742 135.05244825 50.51643292 144.3060014 52.5 157.46484375 C54.7128708 166.44080095 60.67047207 172.16786676 68.30859375 176.9765625 C74.13936937 180.33442761 80.09140908 183.46288231 86.0625 186.5625 C85.48905063 189.42974686 85.2010485 190.4239515 83.0625 192.5625 C81.20581055 192.84960938 81.20581055 192.84960938 78.94921875 192.90625 C78.1197876 192.93436768 77.29035645 192.96248535 76.43579102 192.99145508 C75.10632446 193.02662231 75.10632446 193.02662231 73.75 193.0625 C55.99830975 193.76158425 36.11098212 195.59411907 23.25 209.3125 C15.27391585 219.1885476 12.67063472 229.84290559 12.8125 242.3125 C12.82373901 243.63652832 12.82373901 243.63652832 12.83520508 244.98730469 C12.95025987 252.01400273 13.67041398 258.66835969 15.0625 265.5625 C15.36133276 267.21863182 15.65944341 268.87489403 15.95703125 270.53125 C19.47085781 289.28141897 24.87276427 307.76210074 31.18481445 325.76318359 C32.25411449 329.17364095 32.33582794 332.00923683 32.0625 335.5625 C30.0625 337.5625 30.0625 337.5625 27.25 338.1875 C24.0625 337.5625 24.0625 337.5625 22.78710938 336.00854492 C22.39330078 335.33927979 21.99949219 334.67001465 21.59375 333.98046875 C21.16280029 333.25085938 20.73185059 332.52125 20.2878418 331.76953125 C18.9030729 329.27534699 17.60006228 326.74539027 16.33837891 324.18676758 C7.08166505 305.57716011 -5.41099307 287.32771453 -18.9375 271.5625 C-19.86175781 270.47001953 -19.86175781 270.47001953 -20.8046875 269.35546875 C-25.49141487 264.22598603 -31.36495029 260.35739689 -38.296875 259.15234375 C-45.83186999 258.85354222 -51.8966384 261.23805285 -57.5793457 266.15405273 C-70.53773973 279.592301 -70.54376544 314.66959746 -71.91259766 332.89086914 C-72.00718262 334.07156982 -72.10176758 335.25227051 -72.19921875 336.46875 C-72.30689575 338.02045898 -72.30689575 338.02045898 -72.41674805 339.60351562 C-73.01501256 343.00293707 -74.26963156 345.55781609 -75.9375 348.5625 C-79.25 348.875 -79.25 348.875 -82.9375 348.5625 C-85.57883863 345.12345995 -86.46751176 341.95625278 -87.1484375 337.72265625 C-87.33857422 336.58779785 -87.52871094 335.45293945 -87.72460938 334.28369141 C-87.91861328 333.07632324 -88.11261719 331.86895508 -88.3125 330.625 C-92.72051987 296.3023571 -92.72051987 296.3023571 -109.9375 267.5625 C-121.37912651 262.88183461 -131.34911282 264.12721851 -142.44921875 268.6015625 C-162.18475926 277.02287428 -178.43363267 289.09797683 -194.9375 302.5625 C-196.05594161 303.4714132 -197.17442917 304.38026987 -198.29296875 305.2890625 C-202.74099317 308.78294833 -202.74099317 308.78294833 -206.9375 312.5625 C-209.875 312.75 -209.875 312.75 -212.9375 312.5625 C-214.9375 310.5625 -214.9375 310.5625 -215.5 307.9375 C-214.64404105 302.80174627 -211.48548885 300.21580949 -207.9375 296.5625 C-201.74572034 289.9859884 -196.18141046 283.07738789 -190.74023438 275.87988281 C-187.66708613 271.81649791 -184.5564611 267.80496004 -181.3125 263.875 C-180.61125 263.02164062 -179.91 262.16828125 -179.1875 261.2890625 C-177.99613814 259.84536358 -176.80356758 258.40262306 -175.6015625 256.96777344 C-162.90012305 241.74885255 -154.25222992 226.04321279 -155.9375 205.5625 C-158.07740605 192.09892446 -165.46853582 180.22304253 -176.3125 172.0625 C-190.44465639 162.78168088 -205.5570316 158.4232421 -221.83789062 154.35302734 C-227.0039425 153.03547253 -232.12474848 151.5596782 -237.24389648 150.0715332 C-240.44419653 149.16339841 -243.49668844 148.48899697 -246.80078125 148.0546875 C-249.9375 147.5625 -249.9375 147.5625 -251.9375 145.5625 C-252.3125 143.125 -252.3125 143.125 -251.9375 140.5625 C-249.00607944 137.76078669 -246.93510828 137.18511367 -242.93554688 137.16186523 C-241.93930298 137.14852646 -240.94305908 137.13518768 -239.91662598 137.1214447 C-238.30273987 137.12127098 -238.30273987 137.12127098 -236.65625 137.12109375 C-234.97130432 137.10128197 -234.97130432 137.10128197 -233.25231934 137.08106995 C-229.64735575 137.04016112 -226.0426428 137.0185534 -222.4375 137 C-179.72729508 138.16097961 -179.72729508 138.16097961 -142.9375 119.5625 C-135.99322086 110.45632264 -135.03502906 102.85665834 -135.9375 91.5625 C-137.77659644 79.34742029 -142.75337067 68.66159703 -147.99389648 57.57983398 C-150.15270851 52.96450054 -151.2810994 49.71649106 -150.9375 44.5625 C-150.4425 43.5725 -150.4425 43.5725 -149.9375 42.5625 C-147.12540311 42.02401336 -145.65916979 41.83740223 -142.9375 42.5625 C-141.13671875 44.1796875 -141.13671875 44.1796875 -139.1875 46.375 C-129.39274663 56.9901686 -114.29787789 63.61487343 -100.9375 68.5625 C-100.24140625 68.82675781 -99.5453125 69.09101563 -98.828125 69.36328125 C-89.59374364 72.26382411 -78.07779044 71.51263106 -68.9375 68.5625 C-67.77734375 68.21251953 -67.77734375 68.21251953 -66.59375 67.85546875 C-43.64192185 59.9022245 -29.5068265 34.91163079 -15.87036133 16.24633789 C-14.78581507 14.76424817 -13.69670926 13.28548283 -12.6027832 11.81030273 C-11.42593241 10.22178708 -10.26156977 8.62398336 -9.10620117 7.01977539 C-8.5001001 6.19985107 -7.89399902 5.37992676 -7.26953125 4.53515625 C-6.45319214 3.41379272 -6.45319214 3.41379272 -5.62036133 2.26977539 C-3.9375 0.5625 -3.9375 0.5625 0 0 Z " fill="#39B6FE" transform="translate(741.9375,410.4375)"/>
<path d="M0 0 C1.010625 0.185625 2.02125 0.37125 3.0625 0.5625 C2.51789416 5.61177419 0.77911193 9.56670816 -1.5625 14 C-2.28908482 15.41989598 -3.01431469 16.84048601 -3.73828125 18.26171875 C-4.10518066 18.97763184 -4.47208008 19.69354492 -4.85009766 20.43115234 C-6.52152782 23.7072155 -8.1546947 26.99873844 -9.75 30.3125 C-10.56404297 31.97539062 -10.56404297 31.97539062 -11.39453125 33.671875 C-15.31274362 42.83840355 -16.44471671 52.04968837 -16.3125 61.9375 C-16.30379883 63.02732178 -16.29509766 64.11714355 -16.28613281 65.23999023 C-16.04874826 78.30878832 -14.70100877 91.25084616 -4.9375 100.75 C2.56042591 107.01471441 11.34310314 110.32611982 21.0625 110.5625 C21.70493652 110.59746582 22.34737305 110.63243164 23.00927734 110.66845703 C38.80431582 111.51015473 49.0572332 108.29194577 61.0625 97.5625 C61.69929688 96.95277344 62.33609375 96.34304688 62.9921875 95.71484375 C66.194573 92.70460138 67.39951851 91.63735275 71.9375 91.125 C75.0625 91.5625 75.0625 91.5625 76.0625 92.5625 C76.60975387 97.66290605 75.53979651 99.92631674 72.375 103.875 C69.29430095 107.87990877 66.69702998 111.79380467 64.34375 116.25390625 C62.85813541 118.9307301 61.18975107 121.44747349 59.5 124 C52.49858742 135.05244825 50.51643292 144.3060014 52.5 157.46484375 C54.7128708 166.44080095 60.67047207 172.16786676 68.30859375 176.9765625 C74.13936937 180.33442761 80.09140908 183.46288231 86.0625 186.5625 C85.48905063 189.42974686 85.2010485 190.4239515 83.0625 192.5625 C81.20581055 192.84960938 81.20581055 192.84960938 78.94921875 192.90625 C78.1197876 192.93436768 77.29035645 192.96248535 76.43579102 192.99145508 C75.10632446 193.02662231 75.10632446 193.02662231 73.75 193.0625 C55.99830975 193.76158425 36.11098212 195.59411907 23.25 209.3125 C15.27391585 219.1885476 12.67063472 229.84290559 12.8125 242.3125 C12.82373901 243.63652832 12.82373901 243.63652832 12.83520508 244.98730469 C12.95025987 252.01400273 13.67041398 258.66835969 15.0625 265.5625 C15.36133276 267.21863182 15.65944341 268.87489403 15.95703125 270.53125 C19.47085781 289.28141897 24.87276427 307.76210074 31.18481445 325.76318359 C32.25411449 329.17364095 32.33582794 332.00923683 32.0625 335.5625 C30.0625 337.5625 30.0625 337.5625 27.25 338.1875 C24.0625 337.5625 24.0625 337.5625 22.78710938 336.00854492 C22.39330078 335.33927979 21.99949219 334.67001465 21.59375 333.98046875 C21.16280029 333.25085938 20.73185059 332.52125 20.2878418 331.76953125 C18.9030729 329.27534699 17.60006228 326.74539027 16.33837891 324.18676758 C7.08166505 305.57716011 -5.41099307 287.32771453 -18.9375 271.5625 C-19.86175781 270.47001953 -19.86175781 270.47001953 -20.8046875 269.35546875 C-25.49141487 264.22598603 -31.36495029 260.35739689 -38.296875 259.15234375 C-45.83186999 258.85354222 -51.8966384 261.23805285 -57.5793457 266.15405273 C-70.53773973 279.592301 -70.54376544 314.66959746 -71.91259766 332.89086914 C-72.00718262 334.07156982 -72.10176758 335.25227051 -72.19921875 336.46875 C-72.30689575 338.02045898 -72.30689575 338.02045898 -72.41674805 339.60351562 C-73.01501256 343.00293707 -74.26963156 345.55781609 -75.9375 348.5625 C-79.25 348.875 -79.25 348.875 -82.9375 348.5625 C-85.57883863 345.12345995 -86.46751176 341.95625278 -87.1484375 337.72265625 C-87.33857422 336.58779785 -87.52871094 335.45293945 -87.72460938 334.28369141 C-87.91861328 333.07632324 -88.11261719 331.86895508 -88.3125 330.625 C-92.72051987 296.3023571 -92.72051987 296.3023571 -109.9375 267.5625 C-121.37912651 262.88183461 -131.34911282 264.12721851 -142.44921875 268.6015625 C-162.18475926 277.02287428 -178.43363267 289.09797683 -194.9375 302.5625 C-196.05594161 303.4714132 -197.17442917 304.38026987 -198.29296875 305.2890625 C-202.74099317 308.78294833 -202.74099317 308.78294833 -206.9375 312.5625 C-209.875 312.75 -209.875 312.75 -212.9375 312.5625 C-214.9375 310.5625 -214.9375 310.5625 -215.5 307.9375 C-214.64404105 302.80174627 -211.48548885 300.21580949 -207.9375 296.5625 C-201.74572034 289.9859884 -196.18141046 283.07738789 -190.74023438 275.87988281 C-187.66708613 271.81649791 -184.5564611 267.80496004 -181.3125 263.875 C-180.61125 263.02164062 -179.91 262.16828125 -179.1875 261.2890625 C-177.99613814 259.84536358 -176.80356758 258.40262306 -175.6015625 256.96777344 C-162.90012305 241.74885255 -154.25222992 226.04321279 -155.9375 205.5625 C-158.07740605 192.09892446 -165.46853582 180.22304253 -176.3125 172.0625 C-190.44465639 162.78168088 -205.5570316 158.4232421 -221.83789062 154.35302734 C-227.0039425 153.03547253 -232.12474848 151.5596782 -237.24389648 150.0715332 C-240.44419653 149.16339841 -243.49668844 148.48899697 -246.80078125 148.0546875 C-249.9375 147.5625 -249.9375 147.5625 -251.9375 145.5625 C-252.3125 143.125 -252.3125 143.125 -251.9375 140.5625 C-249.00607944 137.76078669 -246.93510828 137.18511367 -242.93554688 137.16186523 C-241.93930298 137.14852646 -240.94305908 137.13518768 -239.91662598 137.1214447 C-238.30273987 137.12127098 -238.30273987 137.12127098 -236.65625 137.12109375 C-234.97130432 137.10128197 -234.97130432 137.10128197 -233.25231934 137.08106995 C-229.64735575 137.04016112 -226.0426428 137.0185534 -222.4375 137 C-179.72729508 138.16097961 -179.72729508 138.16097961 -142.9375 119.5625 C-135.99322086 110.45632264 -135.03502906 102.85665834 -135.9375 91.5625 C-137.77659644 79.34742029 -142.75337067 68.66159703 -147.99389648 57.57983398 C-150.15270851 52.96450054 -151.2810994 49.71649106 -150.9375 44.5625 C-150.4425 43.5725 -150.4425 43.5725 -149.9375 42.5625 C-147.12540311 42.02401336 -145.65916979 41.83740223 -142.9375 42.5625 C-141.13671875 44.1796875 -141.13671875 44.1796875 -139.1875 46.375 C-129.39274663 56.9901686 -114.29787789 63.61487343 -100.9375 68.5625 C-100.24140625 68.82675781 -99.5453125 69.09101563 -98.828125 69.36328125 C-89.59374364 72.26382411 -78.07779044 71.51263106 -68.9375 68.5625 C-67.77734375 68.21251953 -67.77734375 68.21251953 -66.59375 67.85546875 C-43.64192185 59.9022245 -29.5068265 34.91163079 -15.87036133 16.24633789 C-14.78581507 14.76424817 -13.69670926 13.28548283 -12.6027832 11.81030273 C-11.42593241 10.22178708 -10.26156977 8.62398336 -9.10620117 7.01977539 C-8.5001001 6.19985107 -7.89399902 5.37992676 -7.26953125 4.53515625 C-6.45319214 3.41379272 -6.45319214 3.41379272 -5.62036133 2.26977539 C-3.9375 0.5625 -3.9375 0.5625 0 0 Z M-10.9375 14.5625 C-12.05235332 16.07841678 -12.05235332 16.07841678 -13.08203125 18.0859375 C-13.50484375 18.85075439 -13.92765625 19.61557129 -14.36328125 20.40356445 C-15.04970703 21.65786255 -15.04970703 21.65786255 -15.75 22.9375 C-21.01087828 32.2803064 -26.9119397 40.92908249 -33.37060547 49.47851562 C-34.86434435 51.46520231 -36.32673089 53.47169692 -37.78515625 55.484375 C-46.63623658 67.49023324 -57.94817932 77.26289826 -72.9375 80.5625 C-90.33947171 81.75675296 -103.92506237 78.67221447 -118.9375 69.5625 C-119.81148437 69.0778125 -120.68546875 68.593125 -121.5859375 68.09375 C-126.65847082 65.22997744 -130.65795325 62.21911202 -134.5625 57.8828125 C-135.86022414 56.33162762 -135.86022414 56.33162762 -137.9375 56.5625 C-136.78257066 63.11876552 -134.41400997 69.35119563 -130.875 75 C-126.90320899 81.63007634 -125.42521951 89.91677937 -124.9375 97.5625 C-124.87304688 98.40425781 -124.80859375 99.24601562 -124.7421875 100.11328125 C-124.34884654 109.38301661 -126.86452772 118.37034005 -132.80078125 125.65234375 C-146.68413958 138.06360924 -166.11733652 140.18090687 -183.79956055 142.23706055 C-186.11661236 142.52783663 -186.11661236 142.52783663 -188.9375 143.5625 C-190.45657624 143.64919529 -191.97919001 143.680194 -193.50073242 143.67602539 C-194.42146042 143.67594986 -195.34218842 143.67587433 -196.29081726 143.67579651 C-197.28152725 143.67063522 -198.27223724 143.66547394 -199.29296875 143.66015625 C-200.81812859 143.65803383 -200.81812859 143.65803383 -202.37409973 143.65586853 C-205.62442964 143.65026707 -208.87469088 143.63771432 -212.125 143.625 C-214.32747296 143.61998519 -216.52994701 143.61542225 -218.73242188 143.61132812 C-224.13413804 143.60029717 -229.53581412 143.58355762 -234.9375 143.5625 C-234.9375 144.2225 -234.9375 144.8825 -234.9375 145.5625 C-234.08671875 145.58828125 -233.2359375 145.6140625 -232.359375 145.640625 C-224.62986277 146.00243196 -217.16169994 146.8972987 -209.5625 148.375 C-208.33418457 148.60461426 -208.33418457 148.60461426 -207.08105469 148.83886719 C-187.66187108 152.80116526 -166.7147339 166.05131523 -155.43359375 182.14453125 C-153.9375 184.5625 -153.9375 184.5625 -152.9375 187.5625 C-152.2775 187.5625 -151.6175 187.5625 -150.9375 187.5625 C-150.45641725 188.97851714 -149.97771859 190.39534437 -149.5 191.8125 C-149.23316406 192.60140625 -148.96632813 193.3903125 -148.69140625 194.203125 C-146.93242173 199.70792629 -146.7541743 204.61863588 -146.75 210.375 C-146.73775391 211.25220703 -146.72550781 212.12941406 -146.71289062 213.03320312 C-146.70119847 218.24400702 -147.21831662 222.58364633 -148.9375 227.5625 C-149.19789063 228.37074219 -149.45828125 229.17898438 -149.7265625 230.01171875 C-153.4925027 240.0952876 -159.68626194 248.50800563 -166.94921875 256.36328125 C-168.99529748 258.62642924 -170.87293294 260.97036623 -172.75 263.375 C-176.2308715 267.7841039 -179.96550588 271.91079223 -183.7890625 276.01953125 C-187.68262005 280.2267365 -191.32474369 284.60624667 -194.921875 289.0703125 C-197.52849903 292.29323136 -200.22293427 295.43030877 -202.9375 298.5625 C-198.76753915 297.1799066 -196.3212008 295.29887132 -193.1875 292.25 C-185.88619468 285.43281371 -177.95239415 279.50956377 -169.9375 273.5625 C-168.99519531 272.85738281 -168.05289063 272.15226562 -167.08203125 271.42578125 C-157.58496343 264.53149874 -147.75624443 259.40736988 -136.421875 256.2890625 C-134.01632406 255.80138984 -134.01632406 255.80138984 -132.9375 254.5625 C-126.7124358 252.54634446 -120.23711656 252.29947249 -113.75 252.1875 C-112.99017822 252.16163818 -112.23035645 252.13577637 -111.44750977 252.10913086 C-105.82828138 252.09014905 -102.55629579 253.33952706 -97.9375 256.5625 C-97.6075 257.2225 -97.2775 257.8825 -96.9375 258.5625 C-96.2775 258.5625 -95.6175 258.5625 -94.9375 258.5625 C-91.70542799 266.26974865 -89.47560931 273.77773787 -88.375 282.0625 C-88.25133057 282.95469238 -88.12766113 283.84688477 -88.00024414 284.76611328 C-86.90663293 293.0297441 -86.2506491 301.31746936 -85.64086914 309.62866211 C-85.04476671 317.66311358 -84.15478154 325.59837075 -82.9375 333.5625 C-81.9475 333.5625 -80.9575 333.5625 -79.9375 333.5625 C-79.79054688 331.85320312 -79.79054688 331.85320312 -79.640625 330.109375 C-78.52989884 318.06365268 -76.5277383 306.3729783 -73.9375 294.5625 C-73.68238647 293.38953369 -73.68238647 293.38953369 -73.42211914 292.19287109 C-70.28250612 277.88270358 -65.84149714 263.94272436 -54.9375 253.5625 C-54.25572584 252.23682801 -53.58558564 250.90496312 -52.9375 249.5625 C-47.17323489 246.68036744 -37.1305556 247.77476729 -30.9765625 249.29296875 C-16.33559365 255.85534475 -6.39571594 272.44692059 1.6875 285.5 C2.32945312 286.52029297 2.97140625 287.54058594 3.6328125 288.59179688 C7.47735949 294.76434313 10.92291213 301.00577084 14.0625 307.5625 C14.54976562 308.52542969 15.03703125 309.48835938 15.5390625 310.48046875 C17.88442058 315.11534305 20.07934629 319.7611805 22.0625 324.5625 C22.87944738 322.22163156 23.20184299 320.9716175 22.390625 318.58984375 C22.03484375 317.90019531 21.6790625 317.21054687 21.3125 316.5 C18.85359322 311.32869089 17.43807177 306.1064144 16.0625 300.5625 C15.80686279 299.55791748 15.55122559 298.55333496 15.2878418 297.51831055 C13.41942163 290.12985193 11.64194574 282.72084009 9.9375 275.29296875 C9.14292186 271.90536999 8.27038087 268.549483 7.375 265.1875 C6.13603879 260.34550565 5.57292246 255.62881667 5.2734375 250.64453125 C5.28536765 248.57462398 5.28536765 248.57462398 4.0625 247.5625 C3.043589 236.81685373 2.76010289 225.20623474 8.0625 215.5625 C8.475 214.79164063 8.8875 214.02078125 9.3125 213.2265625 C17.02845213 200.38125583 29.58442504 193.54101718 43.1796875 188.37890625 C49.0860686 187.13702129 54.97949978 187.08903855 61 186.9375 C62.25619141 186.89882813 63.51238281 186.86015625 64.80664062 186.8203125 C67.89178426 186.72646783 70.97692865 186.64077684 74.0625 186.5625 C72.09018387 184.59018387 70.67480777 183.79356535 68.1875 182.625 C65.92246028 181.52704538 64.01168155 180.52400117 62 179 C59.93473983 177.34761087 59.93473983 177.34761087 56.625 176.125 C49.84319204 173.15052283 46.13238722 168.92404807 42.96875 162.2578125 C39.36999101 151.55460689 43.04753172 140.60049919 47.625 130.875 C50.17272507 125.96379931 53.02840556 121.30781833 56.0625 116.6875 C56.4654126 116.06915283 56.8683252 115.45080566 57.28344727 114.8137207 C59.41794213 111.64517594 61.62731388 108.90441155 64.375 106.2421875 C65.261875 105.35789062 66.14875 104.47359375 67.0625 103.5625 C67.0625 102.9025 67.0625 102.2425 67.0625 101.5625 C67.7225 101.5625 68.3825 101.5625 69.0625 101.5625 C69.0625 100.9025 69.0625 100.2425 69.0625 99.5625 C67.5775 100.0575 67.5775 100.0575 66.0625 100.5625 C66.0625 101.2225 66.0625 101.8825 66.0625 102.5625 C65.25425781 102.94148437 65.25425781 102.94148437 64.4296875 103.328125 C61.56306064 104.82293373 58.90642533 106.56316649 56.1875 108.3125 C45.39573926 115.10339769 34.71963116 119.73290507 21.875 119.8125 C21.06224609 119.833125 20.24949219 119.85375 19.41210938 119.875 C9.42382573 119.93856903 0.72817817 116.60409699 -6.74609375 109.953125 C-20.3918077 95.72997549 -23.55680494 76.47154129 -23.2734375 57.60546875 C-22.75972866 44.12804125 -17.92195508 32.4685205 -11.609375 20.72265625 C-9.87946118 17.66191494 -9.87946118 17.66191494 -8.9375 14.5625 C-9.5975 14.5625 -10.2575 14.5625 -10.9375 14.5625 Z " fill="#E9EEF7" transform="translate(741.9375,410.4375)"/>
<path d="M0 0 C2.79620866 2.79620866 3.45304063 6.11539948 4.5625 9.8125 C4.78357422 10.52470703 5.00464844 11.23691406 5.23242188 11.97070312 C6.35101659 15.623878 7.34083514 19.23016951 8 23 C4.89205659 21.44602829 4.70605475 18.8901658 3.5625 15.6875 C2.09739106 11.58611352 0.68160251 8.41650232 -2 5 C-2 4.34 -2 3.68 -2 3 C-1.34 3 -0.68 3 0 3 C0 2.01 0 1.02 0 0 Z " fill="#6AC5FD" transform="translate(757,712)"/>
<path d="M0 0 C0.66 0 1.32 0 2 0 C0.51095825 3.89608498 -1.24378713 7.59097018 -3.125 11.3125 C-3.66382813 12.38113281 -4.20265625 13.44976562 -4.7578125 14.55078125 C-5.37269531 15.76314453 -5.37269531 15.76314453 -6 17 C-6.66 16.01 -7.32 15.02 -8 14 C-5.36 9.38 -2.72 4.76 0 0 Z " fill="#7ECCFD" transform="translate(731,425)"/>
<path d="M0 0 C0.98484375 0.02707031 1.9696875 0.05414062 2.984375 0.08203125 C3.73203125 0.11683594 4.4796875 0.15164063 5.25 0.1875 C5.25 0.5175 5.25 0.8475 5.25 1.1875 C4.57453125 1.23648438 3.8990625 1.28546875 3.203125 1.3359375 C2.31109375 1.41070313 1.4190625 1.48546875 0.5 1.5625 C-0.38171875 1.63210938 -1.2634375 1.70171875 -2.171875 1.7734375 C-4.77465318 2.19145945 -6.53242942 2.77631872 -8.75 4.1875 C-9.55528889 6.23750871 -9.55528889 6.23750871 -9.75 8.1875 C-10 5.875 -10 5.875 -9.75 3.1875 C-6.64020257 0.07770257 -4.29687174 -0.15345971 0 0 Z " fill="#DAEAD2" transform="translate(499.75,547.8125)"/>
<path d="M0 0 C0.93065133 2.60582371 1.14917407 3.64198224 0.0625 6.25 C-0.4634375 7.11625 -0.4634375 7.11625 -1 8 C-1.33 7.34 -1.66 6.68 -2 6 C-2.66 5.67 -3.32 5.34 -4 5 C-2.68 3.35 -1.36 1.7 0 0 Z " fill="#52BEFE" transform="translate(723,440)"/>
</svg>
